<?xml version="1.0" encoding="UTF-8"?>
<!DOCTYPE svg PUBLIC "-//W3C//DTD SVG 1.1//EN" "http://www.w3.org/Graphics/SVG/1.1/DTD/svg11.dtd">
<svg xmlns="http://www.w3.org/2000/svg" version="1.1" width="200px" height="187px" style="shape-rendering:geometricPrecision; text-rendering:geometricPrecision; image-rendering:optimizeQuality; fill-rule:evenodd; clip-rule:evenodd" xmlns:xlink="http://www.w3.org/1999/xlink">
<g><path style="opacity:0.004" fill="#f3f33e" d="M 141.5,4.5 C 142.497,3.28749 143.497,3.45415 144.5,5C 143.906,5.46434 143.239,5.63101 142.5,5.5C 142.5,4.83333 142.167,4.5 141.5,4.5 Z"/></g>
<g><path style="opacity:0.004" fill="#dbfb2c" d="M 58.5,5.5 C 56.6214,5.60682 56.2881,5.10682 57.5,4C 60.8753,3.36839 61.2087,3.86839 58.5,5.5 Z"/></g>
<g><path style="opacity:0.972" fill="#d33646" d="M 141.5,4.5 C 142.167,4.5 142.5,4.83333 142.5,5.5C 145.5,8.83333 148.5,12.1667 151.5,15.5C 147.462,13.6389 144.128,10.8055 141.5,7C 114.502,6.50003 87.5021,6.33336 60.5,6.5C 60.6713,9.79731 60.0046,10.1306 58.5,7.5C 56.3796,8.40335 56.0462,9.73668 57.5,11.5C 56.5,14.1667 55.5,14.1667 54.5,11.5C 53.4822,12.1925 52.4822,12.8592 51.5,13.5C 52.7803,9.88792 55.1136,7.22125 58.5,5.5C 86.1348,4.52541 113.801,4.19208 141.5,4.5 Z"/></g>
<g><path style="opacity:1" fill="#ee082f" d="M 151.5,15.5 C 152.013,17.8542 153.179,19.8542 155,21.5C 155.168,32.1822 155.668,42.8489 156.5,53.5C 166.971,62.5003 174.971,73.167 180.5,85.5C 179.488,86.8717 178.488,88.205 177.5,89.5C 177.167,89.5 176.833,89.5 176.5,89.5C 169.043,73.8783 157.71,62.045 142.5,54C 137.362,51.8818 132.029,50.7151 126.5,50.5C 101.339,49.5023 76.0055,49.1689 50.5,49.5C 50.5,38.5 50.5,27.5 50.5,16.5C 50.2627,15.209 50.596,14.209 51.5,13.5C 52.4822,12.8592 53.4822,12.1925 54.5,11.5C 55.5,14.1667 56.5,14.1667 57.5,11.5C 56.0462,9.73668 56.3796,8.40335 58.5,7.5C 60.0046,10.1306 60.6713,9.79731 60.5,6.5C 87.5021,6.33336 114.502,6.50003 141.5,7C 144.128,10.8055 147.462,13.6389 151.5,15.5 Z"/></g>
<g><path style="opacity:0.012" fill="#540055" d="M 164.5,25.5 C 163.833,24.1667 163.833,24.1667 164.5,25.5 Z"/></g>
<g><path style="opacity:1" fill="#fbf4f6" d="M 60.5,24.5 C 73.5043,24.3334 86.5043,24.5001 99.5,25C 100.833,26.6667 100.833,28.3333 99.5,30C 86.5,30.6667 73.5,30.6667 60.5,30C 59.2475,28.1722 59.2475,26.3388 60.5,24.5 Z"/></g>
<g><path style="opacity:0.008" fill="#7f0000" d="M 164.5,25.5 C 165.833,26.1667 165.833,26.1667 164.5,25.5 Z"/></g>
<g><path style="opacity:1" fill="#f7e9ea" d="M 109.5,24.5 C 111.527,24.3379 113.527,24.5045 115.5,25C 116.554,26.3876 116.72,27.8876 116,29.5C 112.516,31.2159 109.682,30.5493 107.5,27.5C 108.193,26.4822 108.859,25.4822 109.5,24.5 Z"/></g>
<g><path style="opacity:0.998" fill="#af1227" d="M 151.5,15.5 C 155.792,18.4566 159.792,21.7899 163.5,25.5C 163.5,26.1667 163.5,26.8333 163.5,27.5C 163.334,37.8387 163.5,48.172 164,58.5C 164.671,59.2524 165.504,59.5858 166.5,59.5C 166.833,59.5 167.167,59.5 167.5,59.5C 168.833,61.5 170.5,63.1667 172.5,64.5C 172.5,65.1667 172.833,65.5 173.5,65.5C 175.265,68.7089 177.265,71.7089 179.5,74.5C 179.5,75.1667 179.833,75.5 180.5,75.5C 181.167,77.1667 181.833,78.8333 182.5,80.5C 182.598,82.5529 181.931,84.2196 180.5,85.5C 174.971,73.167 166.971,62.5003 156.5,53.5C 155.668,42.8489 155.168,32.1822 155,21.5C 153.179,19.8542 152.013,17.8542 151.5,15.5 Z"/></g>
<g><path style="opacity:0.006" fill="#311210" d="M 167.5,59.5 C 167.5,58.8333 167.167,58.5 166.5,58.5C 166.5,57.8333 166.167,57.5 165.5,57.5C 165.334,47.4944 165.5,37.4944 166,27.5C 167.427,37.0491 167.594,46.5491 166.5,56C 167.5,57 168.5,58 169.5,59C 168.906,59.4643 168.239,59.631 167.5,59.5 Z"/></g>
<g><path style="opacity:0.016" fill="#d1595c" d="M 47.5,16.5 C 48.4954,28.989 48.8287,41.6557 48.5,54.5C 40.8261,54.6664 33.1594,54.4997 25.5,54C 32.8258,53.5003 40.1591,53.3337 47.5,53.5C 47.5,41.1667 47.5,28.8333 47.5,16.5 Z"/></g>
<g><path style="opacity:1" fill="#faf0f3" d="M 60.5,36.5 C 75.837,36.3334 91.1703,36.5001 106.5,37C 107.833,38.6667 107.833,40.3333 106.5,42C 91.1667,42.6667 75.8333,42.6667 60.5,42C 59.2475,40.1722 59.2475,38.3388 60.5,36.5 Z"/></g>
<g><path style="opacity:0.619" fill="#913040" d="M 163.5,27.5 C 164.167,37.5 164.833,47.5 165.5,57.5C 166.167,57.5 166.5,57.8333 166.5,58.5C 166.5,58.8333 166.5,59.1667 166.5,59.5C 165.504,59.5858 164.671,59.2524 164,58.5C 163.5,48.172 163.334,37.8387 163.5,27.5 Z"/></g>
<g><path style="opacity:0.012" fill="#e9fd2e" d="M 27.5,41.5 C 27.5,42.1667 27.5,42.8333 27.5,43.5C 25.5589,41.9894 25.0589,39.9894 26,37.5C 26.21,39.0581 26.71,40.3915 27.5,41.5 Z"/></g>
<g><path style="opacity:0.006" fill="#dd2718" d="M 38.5,41.5 C 39.4971,40.2875 40.4971,40.4542 41.5,42C 40.9056,42.4643 40.2389,42.631 39.5,42.5C 39.5,41.8333 39.1667,41.5 38.5,41.5 Z"/></g>
<g><path style="opacity:0.99" fill="#de2e41" d="M 38.5,41.5 C 39.1667,41.5 39.5,41.8333 39.5,42.5C 41.1667,43.5 42.5,44.8333 43.5,46.5C 43.5,46.8333 43.5,47.1667 43.5,47.5C 42.6618,47.8417 42.3284,48.5084 42.5,49.5C 41.8333,49.5 41.5,49.8333 41.5,50.5C 38.7939,50.3122 36.4605,49.3122 34.5,47.5C 34.5,46.8333 34.1667,46.5 33.5,46.5C 32.7095,45.5987 31.7095,44.9321 30.5,44.5C 30.5,43.8333 30.1667,43.5 29.5,43.5C 29.1667,42.5 28.5,41.8333 27.5,41.5C 27.0101,39.0516 27.8434,37.385 30,36.5C 32.9546,38.0569 35.788,39.7236 38.5,41.5 Z"/></g>
<g><path style="opacity:0.016" fill="#a61406" d="M 27.5,43.5 C 28.1667,43.5 28.8333,43.5 29.5,43.5C 30.1667,43.5 30.5,43.8333 30.5,44.5C 29.221,45.7152 28.221,45.3818 27.5,43.5 Z"/></g>
<g><path style="opacity:0.008" fill="#c7102f" d="M 43.5,49.5 C 43.5,48.8333 43.5,48.1667 43.5,47.5C 44.8333,47.1667 44.8333,46.8333 43.5,46.5C 44.0076,44.0909 44.6743,44.2576 45.5,47C 45.3613,48.301 44.6946,49.1344 43.5,49.5 Z"/></g>
<g><path style="opacity:0.004" fill="#dd2718" d="M 33.5,46.5 C 34.1667,46.5 34.5,46.8333 34.5,47.5C 33.5029,48.7125 32.5029,48.5458 31.5,47C 32.0944,46.5357 32.7611,46.369 33.5,46.5 Z"/></g>
<g><path style="opacity:0.004" fill="#fe0000" d="M 42.5,49.5 C 42.8333,49.5 43.1667,49.5 43.5,49.5C 43.3147,50.1701 42.9813,50.1701 42.5,49.5 Z"/></g>
<g><path style="opacity:1" fill="#cf9ba8" d="M 50.5,16.5 C 50.5,27.5 50.5,38.5 50.5,49.5C 76.0055,49.1689 101.339,49.5023 126.5,50.5C 119.167,50.5 111.833,50.5 104.5,50.5C 86.1667,50.5 67.8333,50.5 49.5,50.5C 49.1719,38.9877 49.5052,27.6544 50.5,16.5 Z"/></g>
<g><path style="opacity:0.004" fill="#fe0000" d="M 41.5,50.5 C 41.8333,50.5 42.1667,50.5 42.5,50.5C 42.3147,51.1701 41.9813,51.1701 41.5,50.5 Z"/></g>
<g><path style="opacity:0.998" fill="#f9f8f8" d="M 104.5,50.5 C 111.833,50.5 119.167,50.5 126.5,50.5C 132.029,50.7151 137.362,51.8818 142.5,54C 157.71,62.045 169.043,73.8783 176.5,89.5C 176.67,90.8221 176.337,91.9887 175.5,93C 172.588,94.3726 169.754,95.8726 167,97.5C 166.727,99.1012 166.227,100.601 165.5,102C 162.832,102.567 160.166,103.067 157.5,103.5C 157.5,102.5 157.5,101.5 157.5,100.5C 159.31,90.0553 156.643,81.0553 149.5,73.5C 145.388,71.7764 143.888,73.1098 145,77.5C 152.619,86.5941 153.452,96.2608 147.5,106.5C 139.966,108.789 132.299,110.456 124.5,111.5C 119.811,111.862 115.478,110.862 111.5,108.5C 108.666,106.498 106.333,103.998 104.5,101C 86.8333,100.333 69.1667,100.333 51.5,101C 50.6198,102.356 50.2865,103.856 50.5,105.5C 47.8333,105.5 45.1667,105.5 42.5,105.5C 42.5,105.167 42.5,104.833 42.5,104.5C 43.8333,104.167 43.8333,103.833 42.5,103.5C 42.7373,102.209 42.404,101.209 41.5,100.5C 41.7373,99.209 41.404,98.209 40.5,97.5C 40.5,96.8333 40.5,96.1667 40.5,95.5C 55.1705,95.6666 69.8371,95.4999 84.5,95C 85.9909,92.9783 85.6576,91.3117 83.5,90C 68.5037,89.5001 53.5037,89.3334 38.5,89.5C 41.2869,88.5233 44.2869,88.19 47.5,88.5C 47.5,87.5 47.5,86.5 47.5,85.5C 48.1667,85.5 48.5,85.1667 48.5,84.5C 51.8499,84.665 55.1832,84.4983 58.5,84C 59.8602,82.0624 59.5268,80.3957 57.5,79C 54.854,78.5026 52.1873,78.3359 49.5,78.5C 48.5525,77.0221 47.2191,76.0221 45.5,75.5C 53.3516,75.8254 61.0182,75.492 68.5,74.5C 70.5822,73.4151 70.9156,71.9151 69.5,70C 58.4236,69.1909 47.4236,69.3575 36.5,70.5C 36.5,69.5 36.5,68.5 36.5,67.5C 33.8333,67.5 31.1667,67.5 28.5,67.5C 30.9686,66.6829 33.6353,66.1829 36.5,66C 50.8333,65.6667 65.1667,65.3333 79.5,65C 80.5707,64.1482 81.5707,63.3149 82.5,62.5C 85.1667,60.5 85.1667,58.5 82.5,56.5C 85.977,55.6773 89.6437,55.1773 93.5,55C 97.3428,53.6389 101.009,52.1389 104.5,50.5 Z"/></g>
<g><path style="opacity:0.016" fill="#acfd55" d="M 41.5,51.5 C 40.7494,52.5735 39.7494,52.7401 38.5,52C 39.448,51.5172 40.448,51.3505 41.5,51.5 Z"/></g>
<g><path style="opacity:1" fill="#d0d2dd" d="M 49.5,50.5 C 67.8333,50.5 86.1667,50.5 104.5,50.5C 101.009,52.1389 97.3428,53.6389 93.5,55C 89.6437,55.1773 85.977,55.6773 82.5,56.5C 63.5,56.5 44.5,56.5 25.5,56.5C 33.3159,55.5076 41.3159,55.1743 49.5,55.5C 49.5,53.8333 49.5,52.1667 49.5,50.5 Z"/></g>
<g><path style="opacity:0.012" fill="#891205" d="M 23.5,61.5 C 23.5,61.8333 23.5,62.1667 23.5,62.5C 23.1667,62.5 22.8333,62.5 22.5,62.5C 21.3871,61.0536 21.2204,59.3869 22,57.5C 22.21,59.0581 22.71,60.3915 23.5,61.5 Z"/></g>
<g><path style="opacity:1" fill="#d5182c" d="M 25.5,56.5 C 44.5,56.5 63.5,56.5 82.5,56.5C 85.1667,58.5 85.1667,60.5 82.5,62.5C 63.1667,62.5 43.8333,62.5 24.5,62.5C 24.5,61.8333 24.1667,61.5 23.5,61.5C 23.1201,59.302 23.7868,57.6354 25.5,56.5 Z"/></g>
<g><path style="opacity:1" fill="#f0032d" d="M 25.5,57.5 C 44.1786,57.1671 62.8452,57.5004 81.5,58.5C 81.7093,59.086 82.0426,59.586 82.5,60C 63.1581,60.833 43.8247,60.6664 24.5,59.5C 24.8627,58.8165 25.1961,58.1499 25.5,57.5 Z"/></g>
<g><path style="opacity:1" fill="#d0c9d2" d="M 24.5,62.5 C 43.8333,62.5 63.1667,62.5 82.5,62.5C 81.5707,63.3149 80.5707,64.1482 79.5,65C 65.1667,65.3333 50.8333,65.6667 36.5,66C 33.6353,66.1829 30.9686,66.6829 28.5,67.5C 27.391,67.4431 26.391,67.1098 25.5,66.5C 25.1667,65.1667 24.8333,63.8333 24.5,62.5 Z"/></g>
<g><path style="opacity:0.016" fill="#8a1006" d="M 173.5,65.5 C 172.833,65.5 172.5,65.1667 172.5,64.5C 172.747,62.0248 173.413,62.0248 174.5,64.5C 174.376,65.1067 174.043,65.44 173.5,65.5 Z"/></g>
<g><path style="opacity:0.012" fill="#dfafd3" d="M 22.5,62.5 C 22.8333,62.5 23.1667,62.5 23.5,62.5C 23.4326,63.9587 23.7659,65.2921 24.5,66.5C 23.5084,66.6716 22.8417,66.3382 22.5,65.5C 22.5,64.5 22.5,63.5 22.5,62.5 Z"/></g>
<g><path style="opacity:0.012" fill="#b6000a" d="M 22.5,65.5 C 22.8417,66.3382 23.5084,66.6716 24.5,66.5C 24.8333,66.5 25.1667,66.5 25.5,66.5C 23.7116,67.6225 21.7116,67.7891 19.5,67C 20.5266,66.4867 21.5266,65.9867 22.5,65.5 Z"/></g>
<g><path style="opacity:0.596" fill="#c74c5c" d="M 28.5,74.5 C 28.5,72.8333 28.5,71.1667 28.5,69.5C 25.8127,69.3359 23.146,69.5026 20.5,70C 19.6198,71.3561 19.2865,72.8561 19.5,74.5C 18.8333,73.8333 18.1667,73.1667 17.5,72.5C 18.4888,69.0649 20.8222,67.7315 24.5,68.5C 26.1667,68.8333 27.8333,69.1667 29.5,69.5C 31.0093,71.62 30.676,73.2867 28.5,74.5 Z"/></g>
<g><path style="opacity:0.992" fill="#e52337" d="M 28.5,74.5 C 28.5,74.8333 28.5,75.1667 28.5,75.5C 25.2869,75.81 22.2869,75.4767 19.5,74.5C 19.2865,72.8561 19.6198,71.3561 20.5,70C 23.146,69.5026 25.8127,69.3359 28.5,69.5C 28.5,71.1667 28.5,72.8333 28.5,74.5 Z"/></g>
<g><path style="opacity:1" fill="#464f63" d="M 68.5,74.5 C 58.1667,74.5 47.8333,74.5 37.5,74.5C 35.8624,73.2954 35.5291,71.9621 36.5,70.5C 47.4236,69.3575 58.4236,69.1909 69.5,70C 70.9156,71.9151 70.5822,73.4151 68.5,74.5 Z"/></g>
<g><path style="opacity:0.008" fill="#c0523f" d="M 17.5,72.5 C 17.6068,74.3786 17.1068,74.7119 16,73.5C 15.3684,70.1247 15.8684,69.7913 17.5,72.5 Z"/></g>
<g><path style="opacity:1" fill="#b2b4be" d="M 37.5,75.5 C 37.5,75.1667 37.5,74.8333 37.5,74.5C 47.8333,74.5 58.1667,74.5 68.5,74.5C 61.0182,75.492 53.3516,75.8254 45.5,75.5C 44.1667,75.8333 42.8333,76.1667 41.5,76.5C 40.4324,75.5655 39.099,75.2322 37.5,75.5 Z"/></g>
<g><path style="opacity:0.016" fill="#832344" d="M 180.5,75.5 C 179.833,75.5 179.5,75.1667 179.5,74.5C 179.747,72.0248 180.413,72.0248 181.5,74.5C 181.376,75.1067 181.043,75.44 180.5,75.5 Z"/></g>
<g><path style="opacity:1" fill="#505767" d="M 116.5,72.5 C 127.861,71.4298 136.361,75.7632 142,85.5C 144.313,96.0437 140.48,103.21 130.5,107C 117.283,109.166 110.449,103.666 110,90.5C 112,87.8333 114,87.8333 116,90.5C 117.593,98.5542 122.426,101.387 130.5,99C 137.427,92.2712 136.76,86.2712 128.5,81C 121.855,78.4123 115.855,79.4123 110.5,84C 96.1667,84.6667 81.8333,84.6667 67.5,84C 66.1398,82.0624 66.4732,80.3957 68.5,79C 81.5,78.6667 94.5,78.3333 107.5,78C 110.596,76.1282 113.596,74.2948 116.5,72.5 Z"/></g>
<g><path style="opacity:0.02" fill="#a61320" d="M 28.5,75.5 C 31.5,76.8333 34.5,76.8333 37.5,75.5C 38.5676,76.4345 39.901,76.7678 41.5,76.5C 41.5,76.8333 41.5,77.1667 41.5,77.5C 41.1667,77.5 40.8333,77.5 40.5,77.5C 35.6367,77.1805 30.97,77.5139 26.5,78.5C 24.1992,77.9396 21.8659,77.4396 19.5,77C 22.6946,76.8195 25.6946,76.3195 28.5,75.5 Z"/></g>
<g><path style="opacity:0.005" fill="#e7c6bf" d="M 40.5,78.5 C 40.5,78.1667 40.5,77.8333 40.5,77.5C 40.8333,77.5 41.1667,77.5 41.5,77.5C 44.0593,77.1984 46.3926,77.5318 48.5,78.5C 47.8333,78.5 47.5,78.8333 47.5,79.5C 45.5,78.1667 43.5,78.1667 41.5,79.5C 41.5,78.8333 41.1667,78.5 40.5,78.5 Z"/></g>
<g><path style="opacity:0.012" fill="#ad2145" d="M 10.5,81.5 C 9.16667,81.8333 9.16667,82.1667 10.5,82.5C 9.99237,84.9091 9.3257,84.7424 8.5,82C 9.3257,79.2576 9.99237,79.0909 10.5,81.5 Z"/></g>
<g><path style="opacity:0.016" fill="#790d12" d="M 184.5,81.5 C 184.5,80.8333 184.167,80.5 183.5,80.5C 183.747,78.0248 184.413,78.0248 185.5,80.5C 185.376,81.1067 185.043,81.44 184.5,81.5 Z"/></g>
<g><path style="opacity:0.988" fill="#d33844" d="M 18.5,83.5 C 17.8333,83.5 17.5,83.8333 17.5,84.5C 16.8333,84.5 16.5,84.8333 16.5,85.5C 13.6421,85.9717 11.6421,84.9717 10.5,82.5C 10.5,82.1667 10.5,81.8333 10.5,81.5C 12.5156,78.0419 15.0156,77.7086 18,80.5C 18.4828,81.448 18.6495,82.448 18.5,83.5 Z"/></g>
<g><path style="opacity:0.016" fill="#83605f" d="M 19.5,83.5 C 19.3505,82.448 19.5172,81.448 20,80.5C 20.7401,81.7494 20.5735,82.7494 19.5,83.5 Z"/></g>
<g><path style="opacity:0.005" fill="#fffe26" d="M 21.5,81.5 C 23.0847,82.0024 23.5847,83.0024 23,84.5C 21.9614,83.7562 21.4614,82.7562 21.5,81.5 Z"/></g>
<g><path style="opacity:1" fill="#54596b" d="M 48.5,78.5 C 48.8333,78.5 49.1667,78.5 49.5,78.5C 52.1873,78.3359 54.854,78.5026 57.5,79C 59.5268,80.3957 59.8602,82.0624 58.5,84C 55.1832,84.4983 51.8499,84.665 48.5,84.5C 48.1667,84.5 47.8333,84.5 47.5,84.5C 47.6716,83.5084 47.3382,82.8417 46.5,82.5C 46.5569,81.391 46.8902,80.391 47.5,79.5C 48.1667,79.5 48.5,79.1667 48.5,78.5 Z"/></g>
<g><path style="opacity:0.012" fill="#a90000" d="M 18.5,83.5 C 18.8333,83.5 19.1667,83.5 19.5,83.5C 19.3147,84.1701 18.9813,84.1701 18.5,83.5 Z"/></g>
<g><path style="opacity:0.995" fill="#cf4252" d="M 26.5,79.5 C 26.5,79.1667 26.5,78.8333 26.5,78.5C 31.1667,78.5 35.8333,78.5 40.5,78.5C 41.1667,78.5 41.5,78.8333 41.5,79.5C 41.6747,81.6208 41.3414,83.6208 40.5,85.5C 35.4889,85.6659 30.4889,85.4993 25.5,85C 24.193,83.0565 24.193,81.2232 25.5,79.5C 25.5,80.8333 25.5,82.1667 25.5,83.5C 30.1667,83.5 34.8333,83.5 39.5,83.5C 39.5,82.1667 39.5,80.8333 39.5,79.5C 35.1667,79.5 30.8333,79.5 26.5,79.5 Z"/></g>
<g><path style="opacity:0.998" fill="#f3032c" d="M 25.5,79.5 C 25.8333,79.5 26.1667,79.5 26.5,79.5C 30.8333,79.5 35.1667,79.5 39.5,79.5C 39.5,80.8333 39.5,82.1667 39.5,83.5C 34.8333,83.5 30.1667,83.5 25.5,83.5C 25.5,82.1667 25.5,80.8333 25.5,79.5 Z"/></g>
<g><path style="opacity:0.004" fill="#fe0000" d="M 17.5,84.5 C 17.8333,84.5 18.1667,84.5 18.5,84.5C 18.3147,85.1701 17.9813,85.1701 17.5,84.5 Z"/></g>
<g><path style="opacity:0.008" fill="#fe0000" d="M 16.5,85.5 C 16.8333,85.5 17.1667,85.5 17.5,85.5C 17.3147,86.1701 16.9813,86.1701 16.5,85.5 Z"/></g>
<g><path style="opacity:0.016" fill="#c42329" d="M 16.5,86.5 C 15.3991,87.5983 14.0657,87.765 12.5,87C 13.7932,86.51 15.1266,86.3433 16.5,86.5 Z"/></g>
<g><path style="opacity:0.004" fill="#e66144" d="M 20.5,87.5 C 22.0496,86.2801 23.7163,86.2801 25.5,87.5C 24.0646,88.0965 22.398,88.0965 20.5,87.5 Z"/></g>
<g><path style="opacity:0.02" fill="#a13229" d="M 25.5,87.5 C 29.97,86.5139 34.6367,86.1805 39.5,86.5C 39.5,86.8333 39.5,87.1667 39.5,87.5C 34.9269,88.0234 30.2603,88.0234 25.5,87.5 Z"/></g>
<g><path style="opacity:0.008" fill="#878787" d="M 46.5,82.5 C 46.3284,83.4916 46.6618,84.1583 47.5,84.5C 47.5,84.8333 47.5,85.1667 47.5,85.5C 45.1998,87.2018 42.5331,87.8685 39.5,87.5C 39.5,87.1667 39.5,86.8333 39.5,86.5C 40.1667,86.5 40.5,86.1667 40.5,85.5C 42.0418,86.3007 43.7085,86.634 45.5,86.5C 45.2322,84.901 45.5655,83.5676 46.5,82.5 Z"/></g>
<g><path style="opacity:0.012" fill="#cef355" d="M 20.5,87.5 C 20.1034,88.525 19.4368,88.6917 18.5,88C 19.0944,87.5357 19.7611,87.369 20.5,87.5 Z"/></g>
<g><path style="opacity:0.004" fill="#000000" d="M 27.5,89.5 C 26.8333,88.1667 26.8333,88.1667 27.5,89.5 Z"/></g>
<g><path style="opacity:0.012" fill="#393939" d="M 192.5,93.5 C 192.167,93.5 191.833,93.5 191.5,93.5C 191.672,92.5084 191.338,91.8417 190.5,91.5C 190.369,90.7611 190.536,90.0944 191,89.5C 192.188,90.5634 192.688,91.8967 192.5,93.5 Z"/></g>
<g><path style="opacity:0.012" fill="#a83e43" d="M 17.5,91.5 C 16.6618,91.8417 16.3284,92.5084 16.5,93.5C 15.2035,92.1512 15.3702,90.8179 17,89.5C 17.4643,90.0944 17.631,90.7611 17.5,91.5 Z"/></g>
<g><path style="opacity:0.981" fill="#ea1033" d="M 25.5,90.5 C 26.8333,91.8333 26.8333,93.1667 25.5,94.5C 21.7593,95.4015 19.7593,94.0681 19.5,90.5C 21.5,90.5 23.5,90.5 25.5,90.5 Z"/></g>
<g><path style="opacity:0.006" fill="#a51417" d="M 27.5,89.5 C 28.6225,91.2884 28.7891,93.2884 28,95.5C 27.5045,93.5273 27.3379,91.5273 27.5,89.5 Z"/></g>
<g><path style="opacity:1" fill="#545a69" d="M 38.5,89.5 C 53.5037,89.3334 68.5037,89.5001 83.5,90C 85.6576,91.3117 85.9909,92.9783 84.5,95C 69.8371,95.4999 55.1705,95.6666 40.5,95.5C 37.0921,96.172 34.4255,95.172 32.5,92.5C 33.7118,90.0769 35.7118,89.0769 38.5,89.5 Z"/></g>
<g><path style="opacity:0.82" fill="#c5505e" d="M 25.5,90.5 C 23.5,90.5 21.5,90.5 19.5,90.5C 19.7593,94.0681 21.7593,95.4015 25.5,94.5C 23.3926,95.4682 21.0593,95.8016 18.5,95.5C 18.6716,94.5084 18.3382,93.8417 17.5,93.5C 17.5,92.8333 17.5,92.1667 17.5,91.5C 20.0546,88.4812 22.7213,88.1479 25.5,90.5 Z"/></g>
<g><path style="opacity:1" fill="#545968" d="M 182.5,80.5 C 182.833,80.5 183.167,80.5 183.5,80.5C 184.167,80.5 184.5,80.8333 184.5,81.5C 186,85.173 188,88.5063 190.5,91.5C 190.328,92.4916 190.662,93.1583 191.5,93.5C 191.599,96.2372 191.265,98.9039 190.5,101.5C 189.662,101.842 189.328,102.508 189.5,103.5C 188.833,103.5 188.5,103.833 188.5,104.5C 187.662,104.842 187.328,105.508 187.5,106.5C 186.833,106.5 186.5,106.833 186.5,107.5C 185.728,108.694 184.728,109.694 183.5,110.5C 181.488,107.795 179.488,105.128 177.5,102.5C 180.158,98.1986 180.158,93.8653 177.5,89.5C 178.488,88.205 179.488,86.8717 180.5,85.5C 181.931,84.2196 182.598,82.5529 182.5,80.5 Z"/></g>
<g><path style="opacity:0.004" fill="#e10000" d="M 16.5,93.5 C 16.8333,93.5 17.1667,93.5 17.5,93.5C 17.5,94.1667 17.5,94.8333 17.5,95.5C 16.6618,95.1583 16.3284,94.4916 16.5,93.5 Z"/></g>
<g><path style="opacity:1" fill="#cccfd8" d="M 176.5,89.5 C 176.833,89.5 177.167,89.5 177.5,89.5C 180.158,93.8653 180.158,98.1986 177.5,102.5C 173.196,108.321 169.03,114.321 165,120.5C 161.965,123.87 158.632,126.87 155,129.5C 154.667,139.5 154.333,149.5 154,159.5C 152.231,164.935 148.731,168.768 143.5,171C 134.833,171.667 126.167,171.667 117.5,171C 116.944,170.617 116.611,170.117 116.5,169.5C 115.71,168.206 114.71,167.039 113.5,166C 115.536,165.546 117.37,164.713 119,163.5C 122.758,165.076 126.758,165.743 131,165.5C 143.251,167.082 148.751,161.748 147.5,149.5C 147.167,146.5 146.833,143.5 146.5,140.5C 145.086,141.624 143.586,142.624 142,143.5C 141.825,148.019 141.325,152.353 140.5,156.5C 140.5,152.167 140.5,147.833 140.5,143.5C 134.021,142.509 127.354,142.176 120.5,142.5C 120.5,147.5 120.5,152.5 120.5,157.5C 118.685,156.37 116.685,155.704 114.5,155.5C 114.665,152.15 114.498,148.817 114,145.5C 112.491,143.081 110.325,142.081 107.5,142.5C 95.8333,142.5 84.1667,142.5 72.5,142.5C 72.5,147.5 72.5,152.5 72.5,157.5C 70.1944,157.007 67.861,156.674 65.5,156.5C 65.6655,152.486 65.4988,148.486 65,144.5C 63.5557,142.845 61.7224,142.178 59.5,142.5C 56.1667,142.5 52.8333,142.5 49.5,142.5C 49.5,140.5 49.5,138.5 49.5,136.5C 41.3159,136.826 33.3159,136.492 25.5,135.5C 46.5,135.5 67.5,135.5 88.5,135.5C 88.5,134.167 88.5,132.833 88.5,131.5C 89.4511,132.919 89.7845,134.585 89.5,136.5C 95.1307,137.382 96.6307,135.382 94,130.5C 93.0975,129.299 91.9308,128.465 90.5,128C 76.8374,127.5 63.1707,127.333 49.5,127.5C 49.5,126.5 49.5,125.5 49.5,124.5C 49.5,124.167 49.5,123.833 49.5,123.5C 58.8393,123.666 68.1726,123.5 77.5,123C 78.056,122.617 78.3893,122.117 78.5,121.5C 78.67,120.178 78.3366,119.011 77.5,118C 58.8363,117.5 40.1696,117.333 21.5,117.5C 30.6753,116.833 40.0086,116.167 49.5,115.5C 49.3764,114.893 49.0431,114.56 48.5,114.5C 44.9581,114.813 41.6248,114.479 38.5,113.5C 42.0419,113.813 45.3752,113.479 48.5,112.5C 53.7401,111.551 59.0735,111.218 64.5,111.5C 69.4889,112.166 74.6555,112.499 80,112.5C 87.4016,112.706 94.5683,112.039 101.5,110.5C 104.592,112.713 107.926,114.379 111.5,115.5C 111.5,113.167 111.5,110.833 111.5,108.5C 115.478,110.862 119.811,111.862 124.5,111.5C 132.299,110.456 139.966,108.789 147.5,106.5C 146.878,107.627 146.045,108.627 145,109.5C 143.833,113.667 145.333,115.167 149.5,114C 152.836,109.817 155.503,105.317 157.5,100.5C 157.5,101.5 157.5,102.5 157.5,103.5C 160.166,103.067 162.832,102.567 165.5,102C 166.227,100.601 166.727,99.1012 167,97.5C 169.754,95.8726 172.588,94.3726 175.5,93C 176.337,91.9887 176.67,90.8221 176.5,89.5 Z"/></g>
<g><path style="opacity:0.004" fill="#000000" d="M 17.5,95.5 C 17.8333,95.5 18.1667,95.5 18.5,95.5C 18.5,95.8333 18.5,96.1667 18.5,96.5C 18.1667,96.1667 17.8333,95.8333 17.5,95.5 Z"/></g>
<g><path style="opacity:0.008" fill="#ba110e" d="M 18.5,96.5 C 20.8568,96.3367 23.1902,96.5034 25.5,97C 22.9139,99.0662 20.5806,98.8995 18.5,96.5 Z"/></g>
<g><path style="opacity:0.008" fill="#000000" d="M 38.5,96.5 C 38.1667,97.1667 37.8333,97.8333 37.5,98.5C 32.3058,97.0206 32.6392,96.3539 38.5,96.5 Z"/></g>
<g><path style="opacity:0.012" fill="#2b2d46" d="M 192.5,93.5 C 193.622,95.2884 193.789,97.2884 193,99.5C 192.505,97.5273 192.338,95.5273 192.5,93.5 Z"/></g>
<g><path style="opacity:0.011" fill="#dde6e5" d="M 38.5,96.5 C 39.1667,96.8333 39.8333,97.1667 40.5,97.5C 40.2627,98.791 40.596,99.791 41.5,100.5C 41.5,101.5 41.5,102.5 41.5,103.5C 41.1667,103.5 40.8333,103.5 40.5,103.5C 40.4077,101.152 39.4077,99.4856 37.5,98.5C 37.8333,97.8333 38.1667,97.1667 38.5,96.5 Z"/></g>
<g><path style="opacity:0.012" fill="#545554" d="M 191.5,100.5 C 192.833,101.167 192.833,101.167 191.5,100.5 Z"/></g>
<g><path style="opacity:1" fill="#505869" d="M 111.5,108.5 C 111.5,110.833 111.5,113.167 111.5,115.5C 107.926,114.379 104.592,112.713 101.5,110.5C 100.5,108.833 99.1667,107.5 97.5,106.5C 86.6596,105.176 75.6596,105.176 64.5,106.5C 64.6236,107.107 64.9569,107.44 65.5,107.5C 65.5674,108.959 65.2341,110.292 64.5,111.5C 59.0735,111.218 53.7401,111.551 48.5,112.5C 45.5,112.5 42.5,112.5 39.5,112.5C 39.5,110.167 39.5,107.833 39.5,105.5C 40.5,105.5 41.5,105.5 42.5,105.5C 45.1667,105.5 47.8333,105.5 50.5,105.5C 50.2865,103.856 50.6198,102.356 51.5,101C 69.1667,100.333 86.8333,100.333 104.5,101C 106.333,103.998 108.666,106.498 111.5,108.5 Z"/></g>
<g><path style="opacity:0.008" fill="#5e5372" d="M 190.5,101.5 C 190.833,101.5 191.167,101.5 191.5,101.5C 191.672,102.492 191.338,103.158 190.5,103.5C 190.5,102.833 190.5,102.167 190.5,101.5 Z"/></g>
<g><path style="opacity:0.012" fill="#c05d7c" d="M 36.5,102.5 C 34.3926,103.468 32.0593,103.802 29.5,103.5C 23.7732,103.483 18.1066,103.649 12.5,104C 12.8333,103.667 13.1667,103.333 13.5,103C 21.1594,102.5 28.8261,102.334 36.5,102.5 Z"/></g>
<g><path style="opacity:0.008" fill="#920c0c" d="M 36.5,102.5 C 37.9587,102.433 39.2921,102.766 40.5,103.5C 40.8333,103.5 41.1667,103.5 41.5,103.5C 41.8333,103.5 42.1667,103.5 42.5,103.5C 42.5,103.833 42.5,104.167 42.5,104.5C 37.9677,104.818 33.6344,104.485 29.5,103.5C 32.0593,103.802 34.3926,103.468 36.5,102.5 Z"/></g>
<g><path style="opacity:0.012" fill="#000055" d="M 189.5,103.5 C 189.833,103.5 190.167,103.5 190.5,103.5C 190.315,104.17 189.981,104.17 189.5,103.5 Z"/></g>
<g><path style="opacity:1" fill="#e9142e" d="M 157.5,100.5 C 155.503,105.317 152.836,109.817 149.5,114C 145.333,115.167 143.833,113.667 145,109.5C 146.045,108.627 146.878,107.627 147.5,106.5C 153.452,96.2608 152.619,86.5941 145,77.5C 143.888,73.1098 145.388,71.7764 149.5,73.5C 156.643,81.0553 159.31,90.0553 157.5,100.5 Z"/></g>
<g><path style="opacity:0.592" fill="#bf5c6c" d="M 39.5,105.5 C 39.5,107.833 39.5,110.167 39.5,112.5C 30.6506,112.826 21.9839,112.493 13.5,111.5C 21.8333,111.5 30.1667,111.5 38.5,111.5C 38.5,109.833 38.5,108.167 38.5,106.5C 30.16,106.334 21.8267,106.5 13.5,107C 12.6198,108.356 12.2865,109.856 12.5,111.5C 11.8333,110.833 11.1667,110.167 10.5,109.5C 11.8829,106.057 14.5495,104.557 18.5,105C 25.4817,105.087 32.4817,105.254 39.5,105.5 Z"/></g>
<g><path style="opacity:1" fill="#acadb4" d="M 97.5,106.5 C 86.6536,106.172 75.9869,106.506 65.5,107.5C 64.9569,107.44 64.6236,107.107 64.5,106.5C 75.6596,105.176 86.6596,105.176 97.5,106.5 Z"/></g>
<g><path style="opacity:0.008" fill="#535353" d="M 188.5,104.5 C 188.833,104.5 189.167,104.5 189.5,104.5C 189.672,105.492 189.338,106.158 188.5,106.5C 188.5,105.833 188.5,105.167 188.5,104.5 Z"/></g>
<g><path style="opacity:1" fill="#fcfcfc" d="M 97.5,106.5 C 99.1667,107.5 100.5,108.833 101.5,110.5C 94.5683,112.039 87.4016,112.706 80,112.5C 74.6555,112.499 69.4889,112.166 64.5,111.5C 65.2341,110.292 65.5674,108.959 65.5,107.5C 75.9869,106.506 86.6536,106.172 97.5,106.5 Z"/></g>
<g><path style="opacity:0.99" fill="#ef052c" d="M 13.5,111.5 C 13.1667,111.5 12.8333,111.5 12.5,111.5C 12.2865,109.856 12.6198,108.356 13.5,107C 21.8267,106.5 30.16,106.334 38.5,106.5C 38.5,108.167 38.5,109.833 38.5,111.5C 30.1667,111.5 21.8333,111.5 13.5,111.5 Z"/></g>
<g><path style="opacity:0.012" fill="#213162" d="M 187.5,106.5 C 187.833,106.5 188.167,106.5 188.5,106.5C 187.968,109.46 187.301,109.793 186.5,107.5C 187.167,107.5 187.5,107.167 187.5,106.5 Z"/></g>
<g><path style="opacity:0.006" fill="#cdfc28" d="M 10.5,109.5 C 10.6068,111.379 10.1068,111.712 9,110.5C 8.36839,107.125 8.86839,106.791 10.5,109.5 Z"/></g>
<g><path style="opacity:0.008" fill="#891d89" d="M 27.5,113.5 C 30.8333,113.5 34.1667,113.5 37.5,113.5C 36.5,114.167 35.5,114.833 34.5,115.5C 33.1667,115.5 31.8333,115.5 30.5,115.5C 29.5,114.833 28.5,114.167 27.5,113.5 Z"/></g>
<g><path style="opacity:0.012" fill="#ca7d83" d="M 27.5,113.5 C 28.5,114.167 29.5,114.833 30.5,115.5C 24.802,115.404 19.1354,114.904 13.5,114C 18.1548,113.501 22.8215,113.334 27.5,113.5 Z"/></g>
<g><path style="opacity:0.012" fill="#f9a3a3" d="M 37.5,113.5 C 37.8333,113.5 38.1667,113.5 38.5,113.5C 41.6248,114.479 44.9581,114.813 48.5,114.5C 44.03,115.486 39.3633,115.819 34.5,115.5C 35.5,114.833 36.5,114.167 37.5,113.5 Z"/></g>
<g><path style="opacity:0.012" fill="#701204" d="M 18.5,116.5 C 18.8966,115.475 19.5632,115.308 20.5,116C 19.9056,116.464 19.2389,116.631 18.5,116.5 Z"/></g>
<g><path style="opacity:0.004" fill="#000000" d="M 18.5,116.5 C 17.8333,117.167 17.8333,117.167 18.5,116.5 Z"/></g>
<g><path style="opacity:0.016" fill="#7d1406" d="M 17.5,117.5 C 17.6716,118.492 17.3382,119.158 16.5,119.5C 16.3284,118.508 16.6618,117.842 17.5,117.5 Z"/></g>
<g><path style="opacity:1" fill="#d5152b" d="M 21.5,117.5 C 40.1696,117.333 58.8363,117.5 77.5,118C 78.3366,119.011 78.67,120.178 78.5,121.5C 58.9093,120.513 39.2426,120.179 19.5,120.5C 19.5,119.833 19.5,119.167 19.5,118.5C 19.8417,117.662 20.5084,117.328 21.5,117.5 Z"/></g>
<g><path style="opacity:0.008" fill="#84fc2e" d="M 16.5,119.5 C 16.5,120.167 16.5,120.833 16.5,121.5C 15.1667,120.833 15.1667,120.167 16.5,119.5 Z"/></g>
<g><path style="opacity:0.999" fill="#a30619" d="M 19.5,120.5 C 39.2426,120.179 58.9093,120.513 78.5,121.5C 78.3893,122.117 78.056,122.617 77.5,123C 68.1726,123.5 58.8393,123.666 49.5,123.5C 39.2917,123.158 29.2917,122.158 19.5,120.5 Z"/></g>
<g><path style="opacity:0.008" fill="#560d01" d="M 178.5,119.5 C 179.833,120.167 179.833,120.833 178.5,121.5C 178.5,120.833 178.5,120.167 178.5,119.5 Z"/></g>
<g><path style="opacity:0.004" fill="#e10000" d="M 16.5,121.5 C 17.525,121.897 17.6917,122.563 17,123.5C 16.5357,122.906 16.369,122.239 16.5,121.5 Z"/></g>
<g><path style="opacity:0.976" fill="#992a36" d="M 19.5,118.5 C 19.5,119.167 19.5,119.833 19.5,120.5C 29.2917,122.158 39.2917,123.158 49.5,123.5C 49.5,123.833 49.5,124.167 49.5,124.5C 39.8333,124.5 30.1667,124.5 20.5,124.5C 18.49,122.683 18.1566,120.683 19.5,118.5 Z"/></g>
<g><path style="opacity:0.012" fill="#6e0a2d" d="M 177.5,121.5 C 177.833,121.5 178.167,121.5 178.5,121.5C 178.573,123.027 177.906,124.027 176.5,124.5C 176.5,123.833 176.5,123.167 176.5,122.5C 177.167,122.5 177.5,122.167 177.5,121.5 Z"/></g>
<g><path style="opacity:0.016" fill="#3f0000" d="M 175.5,124.5 C 175.833,124.5 176.167,124.5 176.5,124.5C 176.315,125.17 175.981,125.17 175.5,124.5 Z"/></g>
<g><path style="opacity:0.012" fill="#bb695d" d="M 20.5,124.5 C 29.6577,125.33 38.991,125.83 48.5,126C 41.3213,126.171 34.3213,126.671 27.5,127.5C 24.3376,127.089 21.3376,126.255 18.5,125C 19.0944,124.536 19.7611,124.369 20.5,124.5 Z"/></g>
<g><path style="opacity:0.008" fill="#7f0000" d="M 174.5,125.5 C 174.833,125.5 175.167,125.5 175.5,125.5C 175.672,126.492 175.338,127.158 174.5,127.5C 174.5,126.833 174.5,126.167 174.5,125.5 Z"/></g>
<g><path style="opacity:0.016" fill="#7f0000" d="M 173.5,127.5 C 173.833,127.5 174.167,127.5 174.5,127.5C 174.315,128.17 173.981,128.17 173.5,127.5 Z"/></g>
<g><path style="opacity:1" fill="#fbf3f6" d="M 27.5,127.5 C 34.8333,127.5 42.1667,127.5 49.5,127.5C 63.1707,127.333 76.8374,127.5 90.5,128C 91.9308,128.465 93.0975,129.299 94,130.5C 96.6307,135.382 95.1307,137.382 89.5,136.5C 89.7845,134.585 89.4511,132.919 88.5,131.5C 88.5,130.833 88.1667,130.5 87.5,130.5C 67.0067,129.503 46.3401,129.169 25.5,129.5C 26.1667,128.833 26.8333,128.167 27.5,127.5 Z"/></g>
<g><path style="opacity:0.016" fill="#7f0000" d="M 172.5,128.5 C 172.833,128.5 173.167,128.5 173.5,128.5C 173.315,129.17 172.981,129.17 172.5,128.5 Z"/></g>
<g><path style="opacity:1" fill="#d55265" d="M 25.5,129.5 C 46.3401,129.169 67.0067,129.503 87.5,130.5C 66.8306,130.333 46.164,130.5 25.5,131C 24.6634,132.011 24.33,133.178 24.5,134.5C 23.0698,132.545 23.4031,130.879 25.5,129.5 Z"/></g>
<g><path style="opacity:0.012" fill="#a90000" d="M 171.5,129.5 C 171.833,129.5 172.167,129.5 172.5,129.5C 172.315,130.17 171.981,130.17 171.5,129.5 Z"/></g>
<g><path style="opacity:0.016" fill="#7f0000" d="M 170.5,130.5 C 170.833,130.5 171.167,130.5 171.5,130.5C 171.315,131.17 170.981,131.17 170.5,130.5 Z"/></g>
<g><path style="opacity:1" fill="#eb142c" d="M 100.5,129.5 C 109.839,129.334 119.173,129.5 128.5,130C 129.833,131.667 129.833,133.333 128.5,135C 119.167,135.667 109.833,135.667 100.5,135C 99.4639,133.224 99.4639,131.391 100.5,129.5 Z"/></g>
<g><path style="opacity:0.016" fill="#7f0000" d="M 169.5,131.5 C 169.833,131.5 170.167,131.5 170.5,131.5C 170.315,132.17 169.981,132.17 169.5,131.5 Z"/></g>
<g><path style="opacity:0.997" fill="#e90a25" d="M 87.5,130.5 C 88.1667,130.5 88.5,130.833 88.5,131.5C 88.5,132.833 88.5,134.167 88.5,135.5C 67.5,135.5 46.5,135.5 25.5,135.5C 24.8333,135.5 24.5,135.167 24.5,134.5C 24.33,133.178 24.6634,132.011 25.5,131C 46.164,130.5 66.8306,130.333 87.5,130.5 Z"/></g>
<g><path style="opacity:0.016" fill="#7f0000" d="M 168.5,132.5 C 168.833,132.5 169.167,132.5 169.5,132.5C 169.315,133.17 168.981,133.17 168.5,132.5 Z"/></g>
<g><path style="opacity:0.016" fill="#7f0000" d="M 167.5,133.5 C 167.833,133.5 168.167,133.5 168.5,133.5C 168.315,134.17 167.981,134.17 167.5,133.5 Z"/></g>
<g><path style="opacity:0.024" fill="#7f002a" d="M 166.5,134.5 C 166.833,134.5 167.167,134.5 167.5,134.5C 167.315,135.17 166.981,135.17 166.5,134.5 Z"/></g>
<g><path style="opacity:0.005" fill="#523c3d" d="M 165.5,135.5 C 165.833,135.5 166.167,135.5 166.5,135.5C 168.036,147.677 167.702,159.677 165.5,171.5C 165.5,159.5 165.5,147.5 165.5,135.5 Z"/></g>
<g><path style="opacity:0.012" fill="#b30b0e" d="M 38.5,137.5 C 39.1667,138.167 39.8333,138.833 40.5,139.5C 35.5318,138.836 30.5318,138.336 25.5,138C 29.8206,137.501 34.1539,137.334 38.5,137.5 Z"/></g>
<g><path style="opacity:0.012" fill="#7f3733" d="M 38.5,137.5 C 41.8333,137.5 45.1667,137.5 48.5,137.5C 48.6665,148.838 48.4999,160.172 48,171.5C 47.6667,160.5 47.3333,149.5 47,138.5C 45.1852,139.244 43.3519,139.911 41.5,140.5C 41.5,139.833 41.1667,139.5 40.5,139.5C 39.8333,138.833 39.1667,138.167 38.5,137.5 Z"/></g>
<g><path style="opacity:1" fill="#f8f6f6" d="M 116.5,169.5 C 112.515,167.679 109.681,164.679 108,160.5C 107.501,154.509 107.334,148.509 107.5,142.5C 110.325,142.081 112.491,143.081 114,145.5C 114.498,148.817 114.665,152.15 114.5,155.5C 116.685,155.704 118.685,156.37 120.5,157.5C 120.833,157.5 121.167,157.5 121.5,157.5C 121.611,158.117 121.944,158.617 122.5,159C 127.833,159.667 133.167,159.667 138.5,159C 139.381,158.292 140.047,157.458 140.5,156.5C 141.325,152.353 141.825,148.019 142,143.5C 143.586,142.624 145.086,141.624 146.5,140.5C 146.833,143.5 147.167,146.5 147.5,149.5C 148.751,161.748 143.251,167.082 131,165.5C 126.758,165.743 122.758,165.076 119,163.5C 117.37,164.713 115.536,165.546 113.5,166C 114.71,167.039 115.71,168.206 116.5,169.5 Z"/></g>
<g><path style="opacity:0.005" fill="#d3111b" d="M 42.5,146.5 C 42.5,146.167 42.5,145.833 42.5,145.5C 43.29,144.391 43.79,143.058 44,141.5C 45.8582,143.798 45.3582,145.465 42.5,146.5 Z"/></g>
<g><path style="opacity:1" fill="#faf9f9" d="M 59.5,142.5 C 61.7224,142.178 63.5557,142.845 65,144.5C 65.4988,148.486 65.6655,152.486 65.5,156.5C 67.861,156.674 70.1944,157.007 72.5,157.5C 73.5,158.167 74.5,158.833 75.5,159.5C 80.6405,160.488 85.9738,160.821 91.5,160.5C 91.5,159.167 91.5,157.833 91.5,156.5C 90.1667,156.5 88.8333,156.5 87.5,156.5C 84.8112,154.185 85.1445,152.185 88.5,150.5C 93.9443,149.892 98.9443,150.558 103.5,152.5C 101.606,153.048 99.9397,154.048 98.5,155.5C 97.7719,158.212 96.9385,160.879 96,163.5C 95.2496,164.126 94.4162,164.626 93.5,165C 86.5,165.667 79.5,165.667 72.5,165C 71.8921,164.13 71.0588,163.63 70,163.5C 67.7211,164.391 65.5544,165.391 63.5,166.5C 62.0256,165.564 61.0256,164.23 60.5,162.5C 59.669,155.869 59.3357,149.202 59.5,142.5 Z"/></g>
<g><path style="opacity:0.004" fill="#f40000" d="M 30.5,145.5 C 29.8333,145.5 29.5,145.833 29.5,146.5C 27.0248,146.253 27.0248,145.587 29.5,144.5C 30.1067,144.624 30.44,144.957 30.5,145.5 Z"/></g>
<g><path style="opacity:0.006" fill="#d71305" d="M 25.5,147.5 C 26.6129,148.946 26.7796,150.613 26,152.5C 25.6258,151.584 25.1258,150.75 24.5,150C 25.2524,149.329 25.5858,148.496 25.5,147.5 Z"/></g>
<g><path style="opacity:0.004" fill="#7a1a0c" d="M 41.5,146.5 C 41.8333,146.5 42.1667,146.5 42.5,146.5C 42.2893,148.424 41.6226,148.757 40.5,147.5C 41.1667,147.5 41.5,147.167 41.5,146.5 Z"/></g>
<g><path style="opacity:0.99" fill="#e32239" d="M 41.5,140.5 C 42.3007,142.042 42.634,143.708 42.5,145.5C 41.8333,145.5 41.5,145.833 41.5,146.5C 40.8333,146.5 40.5,146.833 40.5,147.5C 38.246,148.124 36.5794,149.457 35.5,151.5C 28.2857,155.249 26.2857,153.583 29.5,146.5C 30.1667,146.5 30.5,146.167 30.5,145.5C 32.9324,144.25 35.2657,142.75 37.5,141C 38.7932,140.51 40.1266,140.343 41.5,140.5 Z"/></g>
<g><path style="opacity:0.016" fill="#be0000" d="M 35.5,151.5 C 36.8333,152.167 36.8333,152.167 35.5,151.5 Z"/></g>
<g><path style="opacity:1" fill="#ed0b2f" d="M 58.5,147.5 C 58.3345,151.514 58.5012,155.514 59,159.5C 59.2321,160.737 59.7321,161.737 60.5,162.5C 61.0256,164.23 62.0256,165.564 63.5,166.5C 64.1667,167.833 65.1667,168.833 66.5,169.5C 69.7948,172.808 72.7948,176.474 75.5,180.5C 75.5,180.833 75.5,181.167 75.5,181.5C 69.8333,181.5 64.1667,181.5 58.5,181.5C 57.3998,180.442 56.0664,179.608 54.5,179C 53.1772,178.184 52.5106,177.017 52.5,175.5C 51.962,173.883 51.6287,172.216 51.5,170.5C 51.5,163.167 51.5,155.833 51.5,148.5C 53.9496,148.702 56.283,148.369 58.5,147.5 Z"/></g>
<g><path style="opacity:1" fill="#c799a4" d="M 88.5,150.5 C 93.6405,149.512 98.9738,149.179 104.5,149.5C 104.666,153.846 104.499,158.179 104,162.5C 103.722,163.416 103.222,164.082 102.5,164.5C 103.021,160.519 103.354,156.519 103.5,152.5C 98.9443,150.558 93.9443,149.892 88.5,150.5 Z"/></g>
<g><path style="opacity:0.925" fill="#cb1733" d="M 58.5,147.5 C 56.283,148.369 53.9496,148.702 51.5,148.5C 51.5,155.833 51.5,163.167 51.5,170.5C 50.5067,161.682 50.1734,152.682 50.5,143.5C 53.1667,143.5 55.8333,143.5 58.5,143.5C 58.5,144.833 58.5,146.167 58.5,147.5 Z"/></g>
<g><path style="opacity:1" fill="#c49aa3" d="M 87.5,156.5 C 88.8333,156.5 90.1667,156.5 91.5,156.5C 91.5,157.833 91.5,159.167 91.5,160.5C 85.9738,160.821 80.6405,160.488 75.5,159.5C 80.544,159.827 85.544,159.494 90.5,158.5C 89.3984,157.824 88.3984,157.158 87.5,156.5 Z"/></g>
<g><path style="opacity:0.146" fill="#c36d7d" d="M 49.5,142.5 C 52.8333,142.5 56.1667,142.5 59.5,142.5C 59.3357,149.202 59.669,155.869 60.5,162.5C 59.7321,161.737 59.2321,160.737 59,159.5C 58.5012,155.514 58.3345,151.514 58.5,147.5C 58.5,146.167 58.5,144.833 58.5,143.5C 55.8333,143.5 53.1667,143.5 50.5,143.5C 50.1734,152.682 50.5067,161.682 51.5,170.5C 51.6287,172.216 51.962,173.883 52.5,175.5C 51.0337,174.653 50.2004,173.32 50,171.5C 49.5002,161.839 49.3335,152.172 49.5,142.5 Z"/></g>
<g><path style="opacity:1" fill="#cfd4dc" d="M 103.5,152.5 C 103.354,156.519 103.021,160.519 102.5,164.5C 100.992,167.506 98.6587,169.673 95.5,171C 86.5,171.667 77.5,171.667 68.5,171C 67.9558,170.283 67.2891,169.783 66.5,169.5C 65.1667,168.833 64.1667,167.833 63.5,166.5C 65.5544,165.391 67.7211,164.391 70,163.5C 71.0588,163.63 71.8921,164.13 72.5,165C 79.5,165.667 86.5,165.667 93.5,165C 94.4162,164.626 95.2496,164.126 96,163.5C 96.9385,160.879 97.7719,158.212 98.5,155.5C 99.9397,154.048 101.606,153.048 103.5,152.5 Z"/></g>
<g><path style="opacity:0.999" fill="#a61025" d="M 177.5,102.5 C 179.488,105.128 181.488,107.795 183.5,110.5C 182.099,113.634 180.432,116.634 178.5,119.5C 177.662,119.842 177.328,120.508 177.5,121.5C 176.833,121.5 176.5,121.833 176.5,122.5C 175.662,122.842 175.328,123.508 175.5,124.5C 174.833,124.5 174.5,124.833 174.5,125.5C 173.662,125.842 173.328,126.508 173.5,127.5C 172.833,127.5 172.5,127.833 172.5,128.5C 171.833,128.5 171.5,128.833 171.5,129.5C 170.833,129.5 170.5,129.833 170.5,130.5C 169.833,130.5 169.5,130.833 169.5,131.5C 168.833,131.5 168.5,131.833 168.5,132.5C 167.833,132.5 167.5,132.833 167.5,133.5C 166.833,133.5 166.5,133.833 166.5,134.5C 165.833,134.5 165.5,134.833 165.5,135.5C 164.505,147.322 164.172,159.322 164.5,171.5C 163.596,172.209 163.263,173.209 163.5,174.5C 162.833,174.5 162.5,174.833 162.5,175.5C 161.167,176.833 159.833,178.167 158.5,179.5C 158.167,179.5 157.833,179.5 157.5,179.5C 130.188,180.456 102.855,180.79 75.5,180.5C 72.7948,176.474 69.7948,172.808 66.5,169.5C 67.2891,169.783 67.9558,170.283 68.5,171C 77.5,171.667 86.5,171.667 95.5,171C 98.6587,169.673 100.992,167.506 102.5,164.5C 103.222,164.082 103.722,163.416 104,162.5C 104.499,158.179 104.666,153.846 104.5,149.5C 98.9738,149.179 93.6405,149.512 88.5,150.5C 85.1445,152.185 84.8112,154.185 87.5,156.5C 88.3984,157.158 89.3984,157.824 90.5,158.5C 85.544,159.494 80.544,159.827 75.5,159.5C 74.5,158.833 73.5,158.167 72.5,157.5C 72.5,152.5 72.5,147.5 72.5,142.5C 84.1667,142.5 95.8333,142.5 107.5,142.5C 107.334,148.509 107.501,154.509 108,160.5C 109.681,164.679 112.515,167.679 116.5,169.5C 116.611,170.117 116.944,170.617 117.5,171C 126.167,171.667 134.833,171.667 143.5,171C 148.731,168.768 152.231,164.935 154,159.5C 154.333,149.5 154.667,139.5 155,129.5C 158.632,126.87 161.965,123.87 165,120.5C 169.03,114.321 173.196,108.321 177.5,102.5 Z"/></g>
<g><path style="opacity:1" fill="#ba7b8a" d="M 140.5,143.5 C 134.167,143.5 127.833,143.5 121.5,143.5C 121.5,148.167 121.5,152.833 121.5,157.5C 121.167,157.5 120.833,157.5 120.5,157.5C 120.5,152.5 120.5,147.5 120.5,142.5C 127.354,142.176 134.021,142.509 140.5,143.5 Z"/></g>
<g><path style="opacity:1" fill="#a70822" d="M 140.5,143.5 C 140.5,147.833 140.5,152.167 140.5,156.5C 140.047,157.458 139.381,158.292 138.5,159C 133.167,159.667 127.833,159.667 122.5,159C 121.944,158.617 121.611,158.117 121.5,157.5C 121.5,152.833 121.5,148.167 121.5,143.5C 127.833,143.5 134.167,143.5 140.5,143.5 Z"/></g>
<g><path style="opacity:0.012" fill="#670d07" d="M 164.5,171.5 C 164.833,171.5 165.167,171.5 165.5,171.5C 165.737,172.791 165.404,173.791 164.5,174.5C 164.5,173.5 164.5,172.5 164.5,171.5 Z"/></g>
<g><path style="opacity:0.016" fill="#7f0000" d="M 163.5,174.5 C 163.833,174.5 164.167,174.5 164.5,174.5C 164.315,175.17 163.981,175.17 163.5,174.5 Z"/></g>
<g><path style="opacity:0.004" fill="#c20006" d="M 162.5,175.5 C 162.833,175.5 163.167,175.5 163.5,175.5C 163.167,178.167 162.833,178.167 162.5,175.5 Z"/></g>
<g><path style="opacity:0.613" fill="#881c30" d="M 157.5,179.5 C 157.5,179.833 157.5,180.167 157.5,180.5C 156.209,180.263 155.209,180.596 154.5,181.5C 128.167,181.5 101.833,181.5 75.5,181.5C 75.5,181.167 75.5,180.833 75.5,180.5C 102.855,180.79 130.188,180.456 157.5,179.5 Z"/></g>
<g><path style="opacity:0.004" fill="#511002" d="M 158.5,179.5 C 160.793,180.301 160.46,180.968 157.5,181.5C 157.5,181.167 157.5,180.833 157.5,180.5C 158.167,180.5 158.5,180.167 158.5,179.5 Z"/></g>
<g><path style="opacity:0.011" fill="#d5090a" d="M 58.5,181.5 C 70.3217,182.495 82.3217,182.828 94.5,182.5C 84.5,183.167 74.5,183.833 64.5,184.5C 61.6081,184.279 58.9415,183.446 56.5,182C 57.0944,181.536 57.7611,181.369 58.5,181.5 Z"/></g>
<g><path style="opacity:0.008" fill="#6b1105" d="M 154.5,181.5 C 155.5,181.5 156.5,181.5 157.5,181.5C 154.851,183.109 151.851,183.943 148.5,184C 120.502,184.5 92.502,184.667 64.5,184.5C 74.5,183.833 84.5,183.167 94.5,182.5C 114.674,182.83 134.674,182.497 154.5,181.5 Z"/></g>
</svg>
